<svg width="389" height="301" viewBox="0 0 389 301" fill="none" xmlns="http://www.w3.org/2000/svg">
<path d="M10 300H89C94.5229 300 99 295.523 99 290V99.5L179.5 2H10C4.47715 2 0 6.47716 0 12V290C0 295.523 4.47715 300 10 300Z" fill="#CC7B2E"/>
<path d="M103 104L185 2L271 266.5L388.5 301H191.669C187.631 301 183.989 298.571 182.437 294.843L103 104Z" fill="#42936C"/>
<path d="M276 13.0953C276 7.67144 280.324 3.23633 285.746 3.09855L377.746 0.760637C383.366 0.617808 388 5.13508 388 10.7574V295.5L276 262.846V13.0953Z" fill="#3365E3"/>
</svg>
